<svg xmlns="http://www.w3.org/2000/svg" viewBox="0 0 1193.72 361.9"><defs><style>.cls-1{fill:#090c10;}.cls-2{fill:#424242;}</style></defs><g id="Layer_2" data-name="Layer 2"><g id="Layer_2-2" data-name="Layer 2"><rect class="cls-1" x="0.12" y="0.12" width="1193.47" height="361.65"/><path class="cls-2" d="M1193.72,361.9H0V0H1193.72ZM.25,361.65H1193.47V.25H.25Z"/><rect class="cls-2" x="0.13" y="17.04" width="1193.47" height="0.25"/><rect class="cls-2" x="0.13" y="35.17" width="1193.47" height="0.25"/><rect class="cls-2" x="0.13" y="53.31" width="1193.47" height="0.25"/><rect class="cls-2" x="0.13" y="71.45" width="1193.47" height="0.25"/><rect class="cls-2" x="0.13" y="89.59" width="1193.47" height="0.25"/><rect class="cls-2" x="0.13" y="107.72" width="1193.47" height="0.25"/><rect class="cls-2" x="0.13" y="125.86" width="1193.47" height="0.25"/><rect class="cls-2" x="0.13" y="144" width="1193.47" height="0.25"/><rect class="cls-2" x="0.13" y="162.14" width="1193.47" height="0.25"/><rect class="cls-2" x="0.13" y="180.27" width="1193.47" height="0.25"/><rect class="cls-2" x="0.13" y="198.41" width="1193.47" height="0.25"/><rect class="cls-2" x="0.13" y="216.55" width="1193.47" height="0.25"/><rect class="cls-2" x="0.13" y="234.68" width="1193.47" height="0.25"/><rect class="cls-2" x="0.13" y="252.82" width="1193.47" height="0.25"/><rect class="cls-2" x="0.13" y="270.96" width="1193.47" height="0.25"/><rect class="cls-2" x="0.13" y="289.1" width="1193.47" height="0.25"/><rect class="cls-2" x="0.13" y="307.23" width="1193.47" height="0.25"/><rect class="cls-2" x="0.13" y="325.37" width="1193.47" height="0.25"/><rect class="cls-2" x="0.13" y="343.51" width="1193.47" height="0.25"/><rect class="cls-2" x="16.64" y="0.13" width="0.25" height="361.65"/><rect class="cls-2" x="33.95" y="0.13" width="0.25" height="361.65"/><rect class="cls-2" x="51.27" y="0.13" width="0.25" height="361.65"/><rect class="cls-2" x="68.58" y="0.13" width="0.25" height="361.65"/><rect class="cls-2" x="85.89" y="0.13" width="0.25" height="361.65"/><rect class="cls-2" x="103.21" y="0.13" width="0.25" height="361.65"/><rect class="cls-2" x="120.52" y="0.13" width="0.25" height="361.65"/><rect class="cls-2" x="137.83" y="0.13" width="0.25" height="361.65"/><rect class="cls-2" x="155.15" y="0.13" width="0.25" height="361.65"/><rect class="cls-2" x="172.46" y="0.13" width="0.25" height="361.65"/><rect class="cls-2" x="189.77" y="0.13" width="0.25" height="361.65"/><rect class="cls-2" x="207.08" y="0.13" width="0.25" height="361.65"/><rect class="cls-2" x="224.4" y="0.13" width="0.25" height="361.65"/><rect class="cls-2" x="241.71" y="0.13" width="0.25" height="361.65"/><rect class="cls-2" x="259.02" y="0.13" width="0.25" height="361.65"/><rect class="cls-2" x="276.34" y="0.13" width="0.25" height="361.65"/><rect class="cls-2" x="293.65" y="0.13" width="0.25" height="361.65"/><rect class="cls-2" x="310.96" y="0.13" width="0.25" height="361.65"/><rect class="cls-2" x="328.27" y="0.13" width="0.25" height="361.65"/><rect class="cls-2" x="345.59" y="0.13" width="0.25" height="361.65"/><rect class="cls-2" x="362.9" y="0.13" width="0.25" height="361.65"/><rect class="cls-2" x="380.21" y="0.13" width="0.25" height="361.65"/><rect class="cls-2" x="397.53" y="0.13" width="0.25" height="361.65"/><rect class="cls-2" x="414.84" y="0.13" width="0.25" height="361.65"/><rect class="cls-2" x="432.15" y="0.13" width="0.25" height="361.65"/><rect class="cls-2" x="449.47" y="0.13" width="0.25" height="361.65"/><rect class="cls-2" x="466.78" y="0.13" width="0.25" height="361.65"/><rect class="cls-2" x="484.09" y="0.13" width="0.25" height="361.65"/><rect class="cls-2" x="501.4" y="0.13" width="0.25" height="361.65"/><rect class="cls-2" x="518.72" y="0.13" width="0.25" height="361.65"/><rect class="cls-2" x="536.03" y="0.13" width="0.25" height="361.65"/><rect class="cls-2" x="553.34" y="0.13" width="0.25" height="361.65"/><rect class="cls-2" x="570.66" y="0.13" width="0.25" height="361.65"/><rect class="cls-2" x="587.97" y="0.13" width="0.25" height="361.65"/><rect class="cls-2" x="605.28" y="0.13" width="0.25" height="361.65"/><rect class="cls-2" x="622.6" y="0.13" width="0.25" height="361.65"/><rect class="cls-2" x="639.91" y="0.13" width="0.25" height="361.65"/><rect class="cls-2" x="657.22" y="0.13" width="0.25" height="361.65"/><rect class="cls-2" x="674.53" y="0.13" width="0.25" height="361.65"/><rect class="cls-2" x="691.85" y="0.13" width="0.25" height="361.65"/><rect class="cls-2" x="709.16" y="0.13" width="0.25" height="361.65"/><rect class="cls-2" x="726.47" y="0.13" width="0.25" height="361.65"/><rect class="cls-2" x="743.79" y="0.13" width="0.25" height="361.65"/><rect class="cls-2" x="761.1" y="0.13" width="0.25" height="361.65"/><rect class="cls-2" x="778.41" y="0.13" width="0.25" height="361.65"/><rect class="cls-2" x="795.73" y="0.13" width="0.25" height="361.65"/><rect class="cls-2" x="813.04" y="0.13" width="0.25" height="361.65"/><rect class="cls-2" x="830.35" y="0.13" width="0.25" height="361.65"/><rect class="cls-2" x="847.66" y="0.13" width="0.25" height="361.65"/><rect class="cls-2" x="864.98" y="0.13" width="0.25" height="361.65"/><rect class="cls-2" x="882.29" y="0.13" width="0.25" height="361.65"/><rect class="cls-2" x="899.6" y="0.13" width="0.25" height="361.65"/><rect class="cls-2" x="916.92" y="0.13" width="0.25" height="361.65"/><rect class="cls-2" x="934.23" y="0.13" width="0.25" height="361.65"/><rect class="cls-2" x="951.54" y="0.13" width="0.25" height="361.65"/><rect class="cls-2" x="968.85" y="0.13" width="0.25" height="361.65"/><rect class="cls-2" x="986.17" y="0.13" width="0.25" height="361.65"/><rect class="cls-2" x="1003.48" y="0.13" width="0.25" height="361.65"/><rect class="cls-2" x="1020.79" y="0.13" width="0.25" height="361.65"/><rect class="cls-2" x="1038.11" y="0.13" width="0.25" height="361.65"/><rect class="cls-2" x="1055.42" y="0.13" width="0.25" height="361.65"/><rect class="cls-2" x="1072.73" y="0.13" width="0.25" height="361.65"/><rect class="cls-2" x="1090.05" y="0.13" width="0.25" height="361.65"/><rect class="cls-2" x="1107.36" y="0.13" width="0.25" height="361.65"/><rect class="cls-2" x="1124.67" y="0.13" width="0.25" height="361.65"/><rect class="cls-2" x="1141.98" y="0.13" width="0.25" height="361.65"/><rect class="cls-2" x="1159.3" y="0.13" width="0.25" height="361.65"/><rect class="cls-2" x="1176.61" y="0.13" width="0.25" height="361.65"/></g></g></svg>